<svg width="66" height="63" viewBox="0 0 66 63" fill="none" xmlns="http://www.w3.org/2000/svg">
<path d="M66 3.47168V9.71384C66 15.5082 63.4382 21.0652 58.8781 25.1624C54.318 29.2596 48.1332 31.5614 41.6842 31.5614H38.2105V34.6825H55.5789V56.5301C55.5789 58.1856 54.847 59.7733 53.5441 60.944C52.2412 62.1146 50.4741 62.7722 48.6316 62.7722H20.8421C18.9995 62.7722 17.2325 62.1146 15.9296 60.944C14.6267 59.7733 13.8947 58.1856 13.8947 56.5301V34.6825H31.2632V25.3193C31.2632 19.5249 33.825 13.9679 38.3851 9.87068C42.9452 5.77347 49.13 3.47168 55.5789 3.47168H66ZM12.1579 0.350594C16.3262 0.347559 20.4344 1.24442 24.1364 2.96567C27.8384 4.68691 31.026 7.18216 33.4307 10.2413C29.7624 14.5762 27.7804 19.8737 27.7895 25.3193V28.4403H26.0526C19.143 28.4403 12.5165 25.9741 7.63064 21.5843C2.74482 17.1944 0 11.2404 0 5.03222V0.350594H12.1579Z" fill="#8BBF44" fill-opacity="0.5"/>
</svg>
