<svg width="29" height="65" viewBox="0 0 29 65" fill="none" xmlns="http://www.w3.org/2000/svg">
<path d="M26.3814 30.1434L2.3958 30.0424C1.83477 30.0662 1.30428 30.3045 0.913887 30.7081C0.523488 31.1117 0.302977 31.6498 0.297883 32.2114L0.257207 41.9935C0.257617 42.5584 0.476613 43.1013 0.868323 43.5083C1.26003 43.9154 1.79406 44.1551 2.35856 44.1773C2.42471 44.1791 2.49073 44.1843 2.55635 44.1929L26.1206 44.2909C26.1827 44.2828 26.2452 44.2781 26.3078 44.2768C26.8724 44.2601 27.4086 44.025 27.8034 43.621C28.1982 43.2169 28.4209 42.6755 28.4245 42.1106L28.4652 32.3285C28.4658 31.7661 28.2495 31.2251 27.8614 30.8182C27.4732 30.4112 26.9431 30.1695 26.3814 30.1434ZM28.3774 50.2183C28.3777 49.6763 28.166 49.1557 27.7876 48.7676C27.4093 48.3795 26.8941 48.1547 26.3523 48.1412C26.3025 48.1451 26.25 48.1516 26.2096 48.1514L2.42185 48.0525C2.38148 48.0523 2.32632 48.0454 2.27923 48.0411C1.73775 48.0508 1.22146 48.2716 0.840444 48.6564C0.459429 49.0413 0.243839 49.5598 0.239644 50.1013L0.205004 58.1082C0.201677 59.7192 0.836716 61.2659 1.97112 62.4098C3.10553 63.5537 4.64691 64.2016 6.25788 64.2116L22.242 64.2781C23.8525 64.2811 25.3987 63.646 26.5422 62.512C27.6858 61.3779 28.3336 59.8371 28.3441 58.2265L28.3774 50.2183ZM21.9517 10.1069L7.00129 10.0501C5.00079 11.1005 3.32517 12.6773 2.15533 14.6104C0.985477 16.5434 0.365827 18.7593 0.363267 21.0188L0.347759 24.1009C0.343402 24.6452 0.554673 25.1691 0.935396 25.558C1.31612 25.947 1.83534 26.1694 2.37957 26.1768L2.46844 26.169L26.3006 26.2695C26.3436 26.2697 26.3948 26.2753 26.4445 26.2795C26.9866 26.2707 27.5038 26.05 27.8852 25.6647C28.2666 25.2794 28.4821 24.7601 28.4855 24.2179L28.4983 21.1331C28.5134 18.8736 27.9117 16.6527 26.7581 14.7098C25.6045 12.7668 23.9427 11.1754 21.9517 10.1069ZM8.42519 6.19047L20.5559 6.24226L20.5909 0.10088L8.44131 0.0490147L8.42519 6.19047Z" fill="#C5DFA1"/>
</svg>
