<svg width="14" height="11" viewBox="0 0 14 11" fill="none" xmlns="http://www.w3.org/2000/svg">
<path d="M4.48777 7.5625C4.43818 7.5625 4.38859 7.57002 4.34128 7.58592C4.07237 7.67637 3.78955 7.73438 3.4918 7.73438C3.19405 7.73438 2.91123 7.67637 2.64212 7.58592C2.59481 7.57002 2.54542 7.5625 2.49583 7.5625C1.20813 7.5625 0.165061 8.64703 0.171909 9.98207C0.174813 10.5463 0.622791 11 1.16788 11H5.81572C6.36081 11 6.80879 10.5463 6.81169 9.98207C6.81854 8.64703 5.77547 7.5625 4.48777 7.5625ZM3.4918 6.875C4.59193 6.875 5.48374 5.9516 5.48374 4.8125C5.48374 3.6734 4.59193 2.75 3.4918 2.75C2.39167 2.75 1.49987 3.6734 1.49987 4.8125C1.49987 5.9516 2.39167 6.875 3.4918 6.875ZM12.4555 0H4.48777C3.93853 0 3.4918 0.478027 3.4918 1.06541V2.0625C3.97775 2.0625 4.4276 2.20816 4.81976 2.44492V1.375H12.1235V7.5625H10.7956V6.1875H8.13965V7.5625H6.55772C6.95403 7.92107 7.24494 8.39459 7.38126 8.9375H12.4555C13.0047 8.9375 13.4515 8.45947 13.4515 7.87209V1.06541C13.4515 0.478027 13.0047 0 12.4555 0Z" fill="white"/>
</svg>
