<svg width="75" height="64" viewBox="0 0 75 64" fill="none" xmlns="http://www.w3.org/2000/svg">
<path d="M45.9306 0.458984C46.6102 0.45901 47.2667 0.677764 47.7788 1.07479C48.291 1.47182 48.624 2.02027 48.7164 2.6187L48.7427 2.95866V5.46499C48.7461 7.49375 48.0528 9.4751 46.7555 11.1442C49.3691 11.9438 51.6596 13.4103 53.3408 15.3605C55.022 17.3108 56.0192 19.6582 56.2078 22.1095H57.1677C59.4045 22.1007 61.5457 21.3026 63.1207 19.8907C64.6957 18.4788 65.5754 16.5688 65.5664 14.5805L65.5439 9.63111C65.5404 8.96816 65.8334 8.33113 66.3583 7.86016C66.8832 7.38919 67.5971 7.12287 68.3429 7.11978C69.0887 7.11668 69.8053 7.37707 70.3352 7.84367C70.865 8.31026 71.1646 8.94483 71.1681 9.60778L71.1943 14.5605C71.2098 17.761 69.8434 20.8449 67.3767 23.1765C64.91 25.508 61.5311 26.9095 57.9363 27.0922L57.1339 27.1122L56.2416 27.1088V32.1148H72.1879C72.868 32.115 73.525 32.3342 74.0372 32.7319C74.5495 33.1296 74.8822 33.6788 74.9738 34.2779L75 34.6178C75 35.2219 74.7539 35.8055 74.3072 36.2607C73.8606 36.716 73.2436 37.012 72.5704 37.0942L72.1879 37.1175H56.2416V43.78H57.1339L57.9363 43.8033C61.4014 43.9798 64.6707 45.2893 67.1149 47.4797C69.559 49.6702 71.0054 52.5869 71.1756 55.6684L71.1943 56.335L71.1681 61.2843C71.1615 61.9158 70.8862 62.5216 70.3977 62.98C69.9092 63.4384 69.2436 63.7156 68.5347 63.7557C67.8258 63.7958 67.126 63.5959 66.5761 63.1962C66.0261 62.7965 65.6668 62.2265 65.5702 61.601L65.5439 61.261L65.5702 56.3117C65.5796 54.4111 64.7768 52.5783 63.3242 51.1838C61.8716 49.7892 59.8775 48.937 57.7451 48.7993L57.1677 48.7826H55.3829C54.1845 52.1653 51.8038 55.1201 48.5868 57.2176C45.3697 59.3151 41.484 60.446 37.4944 60.446C33.5047 60.446 29.619 59.3151 26.402 57.2176C23.185 55.1201 20.8042 52.1653 19.6058 48.7826H17.7723C15.5356 48.7915 13.3943 49.5896 11.8193 51.0014C10.2443 52.4133 9.36463 54.3234 9.3736 56.3117L9.39234 61.261C9.39407 61.5893 9.32304 61.9146 9.18331 62.2185C9.04358 62.5223 8.83789 62.7988 8.57798 63.032C8.31808 63.2652 8.00904 63.4506 7.66853 63.5776C7.32801 63.7046 6.96268 63.7708 6.59339 63.7723C6.2241 63.7739 5.85809 63.7107 5.51625 63.5865C5.17442 63.4623 4.86345 63.2795 4.6011 63.0485C4.33876 62.8174 4.13018 62.5427 3.98727 62.24C3.84435 61.9373 3.76991 61.6126 3.76819 61.2843L3.74944 56.3317C3.73392 53.1316 5.09983 50.0482 7.56573 47.7168C10.0316 45.3853 13.4096 43.9834 17.0037 43.8L17.8098 43.7833L18.7472 43.78V37.1142H2.81208C2.13254 37.1142 1.476 36.8954 0.963868 36.4984C0.451737 36.1013 0.118666 35.5529 0.0262483 34.9545L2.34595e-06 34.6178C-0.000875806 34.0132 0.24481 33.4288 0.691542 32.9729C1.13827 32.5169 1.75577 32.2204 2.42964 32.1382L2.81208 32.1182L18.7472 32.1148V27.1088H17.8098L17.0037 27.0922C13.5392 26.9149 10.2709 25.6051 7.8275 23.4147C5.38411 21.2242 3.93828 18.308 3.76819 15.227L3.74944 14.5571L3.77194 9.60445C3.77258 8.96906 4.04541 8.35773 4.53496 7.89474C5.02451 7.43176 5.69404 7.15186 6.40743 7.11196C7.12082 7.07207 7.82454 7.27515 8.37551 7.67995C8.92649 8.08474 9.28336 8.66085 9.3736 9.29116L9.39609 9.63111L9.3736 14.5805C9.36418 16.481 10.1669 18.3138 11.6195 19.7083C13.0721 21.1029 15.0662 21.9551 17.1987 22.0928L17.7761 22.1128H18.7809C18.9689 19.6602 19.9656 17.3112 21.6468 15.3592C23.3279 13.4072 25.6188 11.9389 28.2333 11.1376C27.0832 9.66655 26.4042 7.94553 26.2686 6.15824L26.2461 5.46499V2.95866C26.2463 2.32533 26.5169 1.71568 27.0033 1.25291C27.4898 0.790133 28.1556 0.508731 28.8665 0.465563C29.5773 0.422395 30.2801 0.620681 30.8328 1.02035C31.3854 1.42002 31.7469 1.99128 31.844 2.6187L31.8702 2.95866V5.46499C31.87 6.74917 32.4257 7.98418 33.4221 8.91402C34.4185 9.84385 35.7793 10.3972 37.2222 10.4593C38.6652 10.5215 40.0798 10.0876 41.1726 9.24779C42.2655 8.40793 42.9529 7.22645 43.0923 5.94826L43.1185 5.46499V2.95866C43.1185 2.2957 43.4148 1.6599 43.9422 1.19112C44.4695 0.722342 45.1848 0.458984 45.9306 0.458984Z" fill="#8BBF44" fill-opacity="0.5"/>
</svg>
