<svg width="33" height="35" viewBox="0 0 33 35" fill="none" xmlns="http://www.w3.org/2000/svg">
<path d="M1.79143 9.6425C3.19226 6.74318 5.34124 4.30589 7.99818 2.60307C10.6551 0.900247 13.7153 -0.00102124 16.8367 8.68405e-07C21.3742 8.68405e-07 25.1861 1.73425 28.1005 4.55875L23.2734 9.57775C21.5274 7.8435 19.3084 6.95975 16.8367 6.95975C12.4508 6.95975 8.73827 10.0398 7.41658 14.175C7.07985 15.225 6.88791 16.345 6.88791 17.5C6.88791 18.655 7.07985 19.775 7.41658 20.825C8.73995 24.962 12.4508 28.0402 16.8367 28.0402C19.1013 28.0402 21.0291 27.419 22.5377 26.369C23.4122 25.7705 24.1609 24.9939 24.7386 24.0861C25.3162 23.1783 25.7107 22.1582 25.8983 21.0875H16.8367V14.3185H32.6936C32.8922 15.463 33 16.6565 33 17.8973C33 23.2278 31.1648 27.7147 27.9793 30.7597C25.1945 33.4337 21.3827 35 16.8367 35C14.6255 35.0009 12.4357 34.5489 10.3925 33.6698C8.34942 32.7906 6.493 31.5016 4.92939 29.8764C3.36578 28.2512 2.12563 26.3217 1.27982 24.198C0.434007 22.0744 -0.000883695 19.7984 1.34814e-06 17.5C1.34814e-06 14.6755 0.649899 12.005 1.79143 9.6425Z" fill="#F7F7F7"/>
</svg>
