<svg width="17" height="17" viewBox="0 0 17 17" fill="none" xmlns="http://www.w3.org/2000/svg">
<path d="M9.37381 0.0010458C9.99405 -0.00133431 10.6143 0.00489948 11.2344 0.0197452L11.3993 0.025695C11.5896 0.0324948 11.7775 0.0409945 12.0044 0.0511941C12.9088 0.0936927 13.5258 0.236488 14.0673 0.446431C14.6282 0.662323 15.1008 0.954713 15.5734 1.4273C16.0055 1.85195 16.3399 2.36562 16.5534 2.9326C16.7633 3.47403 16.9061 4.09196 16.9486 4.99633C16.9588 5.22242 16.9673 5.41111 16.9741 5.60151L16.9792 5.7664C16.9943 6.38619 17.0008 7.00616 16.9988 7.62614L16.9996 8.26021V9.37368C17.0017 9.99393 16.9952 10.6142 16.9801 11.2343L16.975 11.3992C16.9682 11.5896 16.9597 11.7774 16.9495 12.0043C16.907 12.9087 16.7625 13.5258 16.5534 14.0672C16.3406 14.6348 16.0061 15.1489 15.5734 15.5734C15.1484 16.0054 14.6345 16.3398 14.0673 16.5534C13.5258 16.7633 12.9088 16.9061 12.0044 16.9486C11.7775 16.9588 11.5896 16.9673 11.3993 16.9741L11.2344 16.9792C10.6143 16.9943 9.99405 17.0008 9.37381 16.9988L8.73974 16.9996H7.62715C7.0069 17.0017 6.38666 16.9952 5.76659 16.9801L5.6017 16.975C5.39993 16.9677 5.1982 16.9592 4.99653 16.9495C4.09218 16.907 3.47511 16.7625 2.93284 16.5534C2.36565 16.3403 1.8519 16.0059 1.42757 15.5734C0.994978 15.1486 0.660247 14.6346 0.446718 14.0672C0.236778 13.5258 0.0939856 12.9087 0.0514878 12.0043C0.0420217 11.8027 0.0335221 11.6009 0.0259891 11.3992L0.0217394 11.2343C0.00606927 10.6142 -0.00101446 9.99394 0.000490425 9.37368V7.62614C-0.00188177 7.00617 0.0043519 6.3862 0.0191895 5.7664L0.0251392 5.60151C0.0319389 5.41111 0.0404384 5.22242 0.0506379 4.99633C0.0931357 4.09111 0.235928 3.47488 0.445867 2.9326C0.659523 2.36534 0.994909 1.85181 1.42842 1.42815C1.85246 0.995301 2.36589 0.66026 2.93284 0.446431C3.47511 0.236488 4.09133 0.0936927 4.99653 0.0511941L5.6017 0.025695L5.76659 0.0214453C6.38637 0.00578267 7.00633 -0.00130118 7.6263 0.000195891L9.37381 0.0010458ZM8.50005 4.2509C7.93696 4.24294 7.37791 4.34697 6.85537 4.55695C6.33283 4.76693 5.85724 5.07867 5.45623 5.47406C5.05522 5.86944 4.73679 6.34059 4.51944 6.86011C4.3021 7.37963 4.19017 7.93717 4.19017 8.50033C4.19017 9.06349 4.3021 9.62103 4.51944 10.1406C4.73679 10.6601 5.05522 11.1312 5.45623 11.5266C5.85724 11.922 6.33283 12.2337 6.85537 12.4437C7.37791 12.6537 7.93696 12.7577 8.50005 12.7498C9.62717 12.7498 10.7081 12.302 11.5051 11.505C12.3021 10.708 12.7498 9.62704 12.7498 8.49991C12.7498 7.37278 12.3021 6.29181 11.5051 5.4948C10.7081 4.6978 9.62717 4.2509 8.50005 4.2509ZM8.50005 5.95084C8.83877 5.9446 9.17533 6.00592 9.49008 6.13121C9.80483 6.25651 10.0915 6.44327 10.3332 6.68058C10.575 6.9179 10.767 7.20101 10.8982 7.51338C11.0293 7.82575 11.0968 8.16112 11.0969 8.4999C11.097 8.83868 11.0295 9.17407 10.8985 9.48648C10.7675 9.7989 10.5755 10.0821 10.3338 10.3195C10.0921 10.5569 9.80558 10.7437 9.49087 10.8691C9.17616 10.9945 8.83962 11.0559 8.50091 11.0498C7.82464 11.0498 7.17607 10.7812 6.69787 10.303C6.21968 9.82477 5.95104 9.17619 5.95104 8.49991C5.95104 7.82363 6.21968 7.17505 6.69787 6.69685C7.17607 6.21864 7.82464 5.94999 8.50091 5.94999L8.50005 5.95084ZM12.9623 2.97594C12.6881 2.98692 12.4288 3.10357 12.2387 3.30146C12.0486 3.49935 11.9424 3.76313 11.9424 4.03756C11.9424 4.31198 12.0486 4.57577 12.2387 4.77366C12.4288 4.97155 12.6881 5.0882 12.9623 5.09917C13.2441 5.09917 13.5143 4.98723 13.7136 4.78798C13.9128 4.58873 14.0248 4.31849 14.0248 4.03671C14.0248 3.75493 13.9128 3.48468 13.7136 3.28543C13.5143 3.08618 13.2441 2.97424 12.9623 2.97424V2.97594Z" fill="white"/>
</svg>
