<svg width="51" height="68" viewBox="0 0 51 68" fill="none" xmlns="http://www.w3.org/2000/svg">
<path d="M32.7857 35.4997C32.7857 39.0496 29.5071 41.9541 25.5 41.9541C21.4929 41.9541 18.2143 39.0496 18.2143 35.4997C18.2143 31.9497 21.4929 29.0452 25.5 29.0452C29.5071 29.0452 32.7857 31.9497 32.7857 35.4997ZM7.28571 29.0452C3.27857 29.0452 0 31.9497 0 35.4997C0 39.0496 3.27857 41.9541 7.28571 41.9541C11.2929 41.9541 14.5714 39.0496 14.5714 35.4997C14.5714 31.9497 11.2929 29.0452 7.28571 29.0452ZM43.7143 29.0452C39.7071 29.0452 36.4286 31.9497 36.4286 35.4997C36.4286 39.0496 39.7071 41.9541 43.7143 41.9541C47.7214 41.9541 51 39.0496 51 35.4997C51 31.9497 47.7214 29.0452 43.7143 29.0452ZM34.6071 16.1362C30.6 16.1362 27.3214 19.0407 27.3214 22.5907C27.3214 26.1407 30.6 29.0452 34.6071 29.0452C38.6143 29.0452 41.8929 26.1407 41.8929 22.5907C41.8929 19.0407 38.6143 16.1362 34.6071 16.1362ZM16.3929 16.1362C12.3857 16.1362 9.10714 19.0407 9.10714 22.5907C9.10714 26.1407 12.3857 29.0452 16.3929 29.0452C20.4 29.0452 23.6786 26.1407 23.6786 22.5907C23.6786 19.0407 20.4 16.1362 16.3929 16.1362ZM34.6071 41.9541C30.6 41.9541 27.3214 44.8587 27.3214 48.4086C27.3214 51.9586 30.6 54.8631 34.6071 54.8631C38.6143 54.8631 41.8929 51.9586 41.8929 48.4086C41.8929 44.8587 38.6143 41.9541 34.6071 41.9541ZM16.3929 41.9541C12.3857 41.9541 9.10714 44.8587 9.10714 48.4086C9.10714 51.9586 12.3857 54.8631 16.3929 54.8631C20.4 54.8631 23.6786 51.9586 23.6786 48.4086C23.6786 44.8587 20.4 41.9541 16.3929 41.9541ZM25.5 54.8631C21.4929 54.8631 18.2143 57.7676 18.2143 61.3176C18.2143 64.8676 21.4929 67.7721 25.5 67.7721C29.5071 67.7721 32.7857 64.8676 32.7857 61.3176C32.7857 57.7676 29.5071 54.8631 25.5 54.8631ZM34.2429 3.87269L31.3286 0C23.3143 3.22724 22.5857 14.8453 22.5857 16.1362H28.05C28.4143 13.5544 29.5071 5.48631 34.2429 3.87269Z" fill="#8BBF44" fill-opacity="0.5"/>
</svg>
