<svg width="60" height="60" viewBox="0 0 60 60" fill="none" xmlns="http://www.w3.org/2000/svg">
<g filter="url(#filter0_d_1868_274)">
<path d="M56 26C56 40.3594 44.3594 52 30 52C15.6406 52 4 40.3594 4 26C4 11.6406 15.6406 0 30 0C44.3594 0 56 11.6406 56 26Z" fill="#6A6A6A"/>
</g>
<mask id="mask0_1868_274" style="mask-type:alpha" maskUnits="userSpaceOnUse" x="8" y="10" width="43" height="43">
<path d="M29.5 10C32.3511 10 35.0854 11.1326 37.1014 13.1486C39.1174 15.1646 40.25 17.8989 40.25 20.75C40.25 23.6011 39.1174 26.3354 37.1014 28.3514C35.0854 30.3674 32.3511 31.5 29.5 31.5C26.6489 31.5 23.9146 30.3674 21.8986 28.3514C19.8826 26.3354 18.75 23.6011 18.75 20.75C18.75 17.8989 19.8826 15.1646 21.8986 13.1486C23.9146 11.1326 26.6489 10 29.5 10ZM29.5 36.875C41.3787 36.875 51 41.6856 51 47.625V53H8V47.625C8 41.6856 17.6213 36.875 29.5 36.875Z" fill="white"/>
</mask>
<g mask="url(#mask0_1868_274)">
<path d="M56 26C56 40.3594 44.3594 52 30 52C15.6406 52 4 40.3594 4 26C4 11.6406 15.6406 0 30 0C44.3594 0 56 11.6406 56 26Z" fill="white"/>
</g>
<defs>
<filter id="filter0_d_1868_274" x="0" y="0" width="60" height="60" filterUnits="userSpaceOnUse" color-interpolation-filters="sRGB">
<feFlood flood-opacity="0" result="BackgroundImageFix"/>
<feColorMatrix in="SourceAlpha" type="matrix" values="0 0 0 0 0 0 0 0 0 0 0 0 0 0 0 0 0 0 127 0" result="hardAlpha"/>
<feOffset dy="4"/>
<feGaussianBlur stdDeviation="2"/>
<feComposite in2="hardAlpha" operator="out"/>
<feColorMatrix type="matrix" values="0 0 0 0 0 0 0 0 0 0 0 0 0 0 0 0 0 0 0.25 0"/>
<feBlend mode="normal" in2="BackgroundImageFix" result="effect1_dropShadow_1868_274"/>
<feBlend mode="normal" in="SourceGraphic" in2="effect1_dropShadow_1868_274" result="shape"/>
</filter>
</defs>
</svg>
