<svg width="74" height="68" viewBox="0 0 74 68" fill="none" xmlns="http://www.w3.org/2000/svg">
<mask id="mask0_726_316" style="mask-type:luminance" maskUnits="userSpaceOnUse" x="0" y="0" width="37" height="30">
<path d="M0 0.89209H36.5052V29.6048H0V0.89209Z" fill="white"/>
</mask>
<g mask="url(#mask0_726_316)">
<path d="M19.9333 28.214C19.9333 28.3782 19.9676 28.535 20.0335 28.6868C20.0995 28.8385 20.1945 28.9729 20.3185 29.0874C20.4399 29.2043 20.5823 29.2939 20.7433 29.3561C20.9042 29.4183 21.0704 29.4506 21.2446 29.4506H28.9118C29.086 29.4506 29.2548 29.4183 29.4131 29.3561C29.5741 29.2939 29.7165 29.2043 29.8379 29.0874C29.9619 28.9729 30.0569 28.8385 30.1229 28.6868C30.1888 28.535 30.2231 28.3782 30.2231 28.214V22.0958C30.6505 22.0236 31.0648 21.9166 31.4711 21.7748C31.8774 21.6355 32.2679 21.4613 32.6425 21.2573C33.0172 21.0533 33.3707 20.8169 33.7006 20.5556C34.0304 20.2919 34.3364 20.0033 34.6134 19.6898C34.8905 19.3763 35.1385 19.0429 35.3548 18.6871C35.5686 18.3338 35.7506 17.9655 35.8984 17.5799C36.0461 17.1967 36.1596 16.8036 36.2334 16.4005C36.3073 15.9974 36.3469 15.5919 36.3469 15.1838C36.3469 14.7758 36.3073 14.3702 36.2334 13.9671C36.1596 13.5641 36.0461 13.1709 35.8984 12.7878C35.7506 12.4021 35.5686 12.0339 35.3548 11.6781C35.1385 11.3248 34.8905 10.9913 34.6134 10.6778C34.3364 10.3643 34.0304 10.0757 33.7006 9.81199C33.3707 9.55073 33.0172 9.31436 32.6425 9.11034C32.2679 8.90631 31.8774 8.73215 31.4711 8.59281C31.0648 8.45099 30.6505 8.344 30.2231 8.27185V2.15359C30.2258 1.98938 30.1915 1.83263 30.1255 1.68085C30.0595 1.52908 29.9645 1.39472 29.8405 1.27778C29.7192 1.16084 29.5767 1.07127 29.4158 1.00906C29.2548 0.94686 29.086 0.914515 28.9118 0.917004H5.78871C5.40877 0.917004 5.03412 0.951837 4.6621 1.0215C4.29272 1.09117 3.93126 1.19318 3.58035 1.33003C3.23207 1.46688 2.89963 1.63607 2.58302 1.83512C2.26905 2.03416 1.97619 2.25809 1.70971 2.51188C1.44059 2.76567 1.20313 3.03936 0.992057 3.33793C0.780983 3.6365 0.604209 3.95001 0.459096 4.28092C0.313983 4.61184 0.205807 4.95023 0.131932 5.30354C0.0580557 5.65436 0.0211182 6.00767 0.0211182 6.36596V28.214C0.0211182 28.3782 0.0554175 28.535 0.121378 28.6868C0.187339 28.8385 0.282322 28.9729 0.406328 29.0874C0.527695 29.2043 0.670169 29.2939 0.831113 29.3561C0.989419 29.4183 1.15828 29.4506 1.33241 29.4506H8.99966C9.1738 29.4506 9.34002 29.4183 9.50096 29.3561C9.66191 29.2939 9.80438 29.2043 9.92575 29.0874C10.0498 28.9729 10.1447 28.8385 10.2107 28.6868C10.2767 28.535 10.311 28.3782 10.311 28.214C10.3136 27.9179 10.3479 27.6243 10.4139 27.3332C10.4772 27.0446 10.5695 26.7635 10.6935 26.4898C10.8149 26.2161 10.9653 25.9573 11.1421 25.7135C11.3162 25.4672 11.5167 25.2407 11.741 25.0342C11.9626 24.8252 12.2053 24.6386 12.4665 24.4744C12.7277 24.3127 13.0048 24.1733 13.295 24.0614C13.5826 23.9494 13.8834 23.8648 14.1894 23.8076C14.4981 23.7504 14.8095 23.7205 15.1208 23.7205C15.4348 23.7205 15.7461 23.7504 16.0548 23.8076C16.3609 23.8648 16.659 23.9494 16.9492 24.0614C17.2394 24.1733 17.5165 24.3127 17.7777 24.4744C18.0389 24.6386 18.2816 24.8252 18.5033 25.0342C18.7275 25.2407 18.928 25.4672 19.1022 25.7135C19.2789 25.9573 19.4293 26.2161 19.5507 26.4898C19.6747 26.7635 19.7671 27.0446 19.8304 27.3332C19.8963 27.6243 19.9306 27.9179 19.9333 28.214Z" fill="#8BBF44" fill-opacity="0.5"/>
</g>
<mask id="mask1_726_316" style="mask-type:luminance" maskUnits="userSpaceOnUse" x="45" y="13" width="29" height="33">
<path d="M45.2858 13.6809H73.4536V45.5287H45.2858V13.6809Z" fill="white"/>
</mask>
<g mask="url(#mask1_726_316)">
<path d="M67.665 13.9447H45.8505C45.8531 15.4774 45.8479 19.7072 45.8505 21.302C53.9346 22.7053 53.9241 33.7177 45.8505 35.1235V39.2114H52.2091C52.3806 39.2114 52.5494 39.2438 52.7104 39.306C52.8687 39.3682 53.0112 39.4578 53.1352 39.5747C53.2565 39.6916 53.3515 39.826 53.4175 39.9753C53.4861 40.1271 53.5177 40.2863 53.5204 40.4505C53.523 40.7466 53.5573 41.0377 53.6206 41.3288C53.6866 41.6199 53.7789 41.9011 53.9003 42.1723C54.0243 42.446 54.1721 42.7047 54.3488 42.9486C54.5256 43.1949 54.7261 43.4213 54.9478 43.6303C55.172 43.8368 55.4121 44.0234 55.676 44.1876C55.9372 44.3519 56.2116 44.4887 56.5018 44.6007C56.792 44.7126 57.0902 44.7997 57.3989 44.8569C57.7049 44.9142 58.0162 44.9415 58.3302 44.9415C58.6442 44.9415 58.9555 44.9142 59.2616 44.8569C59.5703 44.7997 59.8684 44.7126 60.1586 44.6007C60.4489 44.4887 60.7233 44.3494 60.9871 44.1876C61.2483 44.0234 61.4884 43.8368 61.7127 43.6303C61.9343 43.4213 62.1348 43.1949 62.3116 42.9486C62.4884 42.7047 62.6361 42.446 62.7601 42.1723C62.8815 41.9011 62.9738 41.6199 63.0398 41.3288C63.1031 41.0377 63.1374 40.7466 63.1401 40.4505C63.1427 40.2863 63.1744 40.1271 63.243 39.9753C63.3089 39.8235 63.4039 39.6916 63.5253 39.5747C63.6493 39.4578 63.7918 39.3682 63.9501 39.306C64.111 39.2438 64.2799 39.2114 64.4514 39.2114C66.2349 39.2089 71.7228 39.2139 73.4325 39.2114V19.3937C73.4325 19.0379 73.3956 18.6821 73.3217 18.3312C73.2479 17.9804 73.137 17.6395 72.9919 17.3086C72.8468 16.9777 72.67 16.6642 72.459 16.3681C72.2505 16.0695 72.0104 15.7934 71.744 15.5421C71.4748 15.2883 71.1846 15.0619 70.868 14.8628C70.554 14.6638 70.2216 14.4971 69.8707 14.3602C69.5224 14.2234 69.1609 14.1189 68.7889 14.0492C68.4169 13.9795 68.0422 13.9447 67.665 13.9447Z" fill="#8BBF44" fill-opacity="0.5"/>
</g>
<mask id="mask2_726_316" style="mask-type:luminance" maskUnits="userSpaceOnUse" x="39" y="41" width="35" height="27">
<path d="M39.2069 41.0699H73.4536V67.7723H39.2069V41.0699Z" fill="white"/>
</mask>
<g mask="url(#mask2_726_316)">
<path d="M65.6439 41.687C64.1532 49.3255 52.494 49.3155 51.0165 41.687H45.8505V47.6958C45.8505 47.86 45.8188 48.0168 45.7529 48.1685C45.6843 48.3228 45.5919 48.4547 45.4679 48.5716C45.3439 48.6885 45.2014 48.7781 45.0405 48.8403C44.8796 48.9025 44.7133 48.9349 44.5392 48.9324C38.1991 49.0866 38.1885 57.8771 44.5392 58.0239C44.7133 58.0239 44.8796 58.0563 45.0405 58.1185C45.2014 58.1832 45.3413 58.2727 45.4653 58.3872C45.5893 58.5041 45.6816 58.6385 45.7502 58.7903C45.8162 58.942 45.8505 59.0988 45.8505 59.263C45.8531 60.9425 45.8479 66.1352 45.8505 67.7474H67.665C68.0422 67.7474 68.4169 67.7126 68.7889 67.6429C69.1609 67.5733 69.5224 67.4688 69.8707 67.3319C70.2216 67.1951 70.554 67.0259 70.868 66.8293C71.1846 66.6303 71.4748 66.4039 71.744 66.1501C72.0104 65.8963 72.2505 65.6226 72.459 65.324C72.67 65.0279 72.8468 64.712 72.9919 64.3835C73.137 64.0526 73.2479 63.7117 73.3217 63.3609C73.3956 63.0101 73.4325 62.6543 73.4325 62.296V41.687H65.6439Z" fill="#8BBF44" fill-opacity="0.5"/>
</g>
<mask id="mask3_726_316" style="mask-type:luminance" maskUnits="userSpaceOnUse" x="15" y="35" width="29" height="33">
<path d="M15.5667 35.3374H43.2595V67.7724H15.5667V35.3374Z" fill="white"/>
</mask>
<g mask="url(#mask3_726_316)">
<path d="M37.1067 53.4781C37.1067 53.07 37.1463 52.6645 37.2228 52.2639C37.2967 51.8608 37.4102 51.4677 37.5579 51.0845C37.7057 50.7013 37.8877 50.3306 38.1041 49.9773C38.3204 49.624 38.5684 49.2906 38.8455 48.9771C39.1225 48.6636 39.4259 48.375 39.7557 48.1137C40.0881 47.85 40.4391 47.6161 40.8137 47.4096C41.1857 47.2031 41.5762 47.0314 41.9825 46.8896C42.3862 46.7477 42.8031 46.6408 43.2279 46.5686V41.6869H36.8561C36.6846 41.6869 36.5157 41.6546 36.3574 41.5924C36.1965 41.5302 36.054 41.4406 35.9326 41.3237C35.8086 41.2092 35.7136 41.0749 35.6477 40.9231C35.5817 40.7713 35.5474 40.6146 35.5474 40.4503C35.5474 40.1518 35.5158 39.8557 35.4551 39.5646C35.3918 39.271 35.3021 38.9873 35.1807 38.7136C35.0593 38.4375 34.9116 38.1762 34.7374 37.9274C34.5607 37.6786 34.3628 37.4497 34.1385 37.2407C33.9169 37.0292 33.6741 36.8401 33.4103 36.6759C33.1491 36.5092 32.8721 36.3698 32.5792 36.2554C32.289 36.1409 31.9882 36.0563 31.6795 35.9966C31.3708 35.9394 31.0568 35.9095 30.7429 35.9095C30.4263 35.9095 30.1149 35.9394 29.8036 35.9966C29.4949 36.0563 29.1941 36.1409 28.9039 36.2554C28.611 36.3698 28.334 36.5092 28.0728 36.6759C27.8089 36.8401 27.5662 37.0292 27.3446 37.2407C27.1203 37.4497 26.9224 37.6786 26.7457 37.9274C26.5715 38.1762 26.4238 38.4375 26.3024 38.7136C26.181 38.9873 26.0913 39.271 26.0306 39.5646C25.9673 39.8557 25.9383 40.1518 25.9383 40.4503C25.9357 40.6146 25.904 40.7713 25.8354 40.9231C25.7694 41.0749 25.6745 41.2092 25.5531 41.3237C25.4291 41.4406 25.2866 41.5302 25.1283 41.5924C24.9674 41.6546 24.8011 41.6869 24.627 41.6869C22.8434 41.6894 17.3423 41.6869 15.6326 41.6869V62.2959C15.6353 62.6542 15.6722 63.01 15.7461 63.3608C15.82 63.7117 15.9308 64.0525 16.0759 64.3834C16.221 64.7144 16.4004 65.0279 16.6115 65.3264C16.8226 65.6225 17.0627 65.8987 17.3318 66.1525C17.5983 66.4038 17.8911 66.6302 18.2051 66.8293C18.5217 67.0283 18.8541 67.195 19.2051 67.3318C19.556 67.4687 19.9174 67.5732 20.2894 67.6429C20.6588 67.7125 21.0361 67.7474 21.4134 67.7474H43.2279C43.2252 66.2147 43.2305 61.9824 43.2279 60.39C42.8031 60.3179 42.3862 60.2109 41.9799 60.0691C41.5736 59.9297 41.1831 59.7556 40.8111 59.5515C40.4364 59.3475 40.0829 59.1111 39.7531 58.8499C39.4206 58.5862 39.1172 58.2975 38.8402 57.984C38.5631 57.6705 38.3151 57.3371 38.0988 56.9838C37.8824 56.628 37.7004 56.2598 37.5526 55.8741C37.4049 55.4909 37.2941 55.0978 37.2202 54.6948C37.1437 54.2942 37.1067 53.8886 37.1067 53.4781Z" fill="#8BBF44" fill-opacity="0.5"/>
</g>
</svg>
