<svg width="10" height="10" viewBox="0 0 10 10" fill="none" xmlns="http://www.w3.org/2000/svg">
<path fill-rule="evenodd" clip-rule="evenodd" d="M0 5C0 3.67392 0.526784 2.40215 1.46447 1.46447C2.40215 0.526784 3.67392 0 5 0C6.32608 0 7.59785 0.526784 8.53553 1.46447C9.47322 2.40215 10 3.67392 10 5C10 6.32608 9.47322 7.59785 8.53553 8.53553C7.59785 9.47322 6.32608 10 5 10C3.67392 10 2.40215 9.47322 1.46447 8.53553C0.526784 7.59785 0 6.32608 0 5ZM5.44118 2.05882C5.44118 1.94182 5.3947 1.8296 5.31196 1.74686C5.22922 1.66413 5.11701 1.61765 5 1.61765C4.88299 1.61765 4.77078 1.66413 4.68804 1.74686C4.6053 1.8296 4.55882 1.94182 4.55882 2.05882V5C4.55879 5.0748 4.57778 5.14838 4.614 5.21382C4.65022 5.27926 4.70249 5.33442 4.76588 5.37412L6.53059 6.47706C6.62981 6.53915 6.74963 6.55928 6.8637 6.53303C6.92018 6.52003 6.97355 6.49603 7.02075 6.46241C7.06796 6.42878 7.10808 6.38619 7.13882 6.33706C7.16957 6.28793 7.19034 6.23322 7.19994 6.17607C7.20954 6.11891 7.20779 6.06043 7.19479 6.00395C7.18179 5.94747 7.1578 5.8941 7.12417 5.84689C7.09055 5.79969 7.04795 5.75957 6.99882 5.72882L5.44118 4.75529V2.05882Z" fill="white"/>
</svg>
