<svg width="78" height="68" viewBox="0 0 78 68" fill="none" xmlns="http://www.w3.org/2000/svg">
<path d="M69.0538 19.8142C66.8172 14.1374 62.3441 10.3529 55.6344 7.98758V0.891602H50.043V7.51451H47.8065C41.6559 7.51451 36.6237 9.40677 32.1505 13.1913L29.914 15.0836L22.086 12.7182C20.4086 12.2452 18.7312 11.7721 16.4946 11.7721C13.1398 11.7721 9.78495 12.7182 6.98925 14.6105C3.63441 16.5028 1.95699 18.8681 0.83871 21.2334C-0.27957 24.5449 -0.27957 27.3833 0.83871 30.6947C2.51613 34.0062 4.19355 36.3715 6.98925 37.7907C4.75269 44.8867 6.43011 51.0365 12.5806 56.2402C17.0538 60.0248 22.086 61.917 28.2366 61.917C31.0323 61.917 32.7097 61.917 34.3871 61.4439C37.7419 65.2285 42.2151 67.5938 47.8065 67.5938C49.4839 67.5938 51.7204 67.5938 53.3979 67.1207C56.7527 66.1746 58.9892 64.2823 61.2258 61.917C63.4624 59.0786 64.5806 56.7133 64.5806 53.8749C64.5806 51.9826 64.5806 50.5634 64.0215 49.1443L61.2258 41.5752L64.5806 39.6829C69.0538 35.8984 71.2903 30.6947 70.7312 25.0179H78V19.8142H69.0538ZM14.8172 30.6947C11.4624 29.2755 10.3441 27.3833 11.4624 24.5449C12.5806 21.7065 14.8172 20.7603 18.172 21.7065L36.0645 27.3833C27.1183 31.1678 20.4086 32.1139 14.8172 30.6947ZM50.043 57.1864C46.6882 58.1325 44.4516 57.1864 42.7742 54.348C41.0968 49.6173 42.215 43.9405 46.6882 36.3715L53.3979 51.0365C54.5161 54.348 53.3979 56.2402 50.043 57.1864ZM56.7527 32.1139L53.3979 24.5449V24.0718L51.7204 22.6526H51.1613L42.2151 19.8142C44.4516 18.395 46.6882 17.4489 49.4839 17.4489C52.2796 17.4489 55.0753 18.395 57.3118 20.2873C59.5484 22.1795 60.6667 24.0718 60.6667 26.4371C59.5484 27.8563 58.4301 30.2216 56.7527 32.1139Z" fill="#8BBF44" fill-opacity="0.5"/>
</svg>
