<svg width="34" height="34" viewBox="0 0 34 34" fill="none" xmlns="http://www.w3.org/2000/svg">
<path d="M7.79171 9.91665C7.22812 9.91665 6.68762 9.69276 6.28911 9.29425C5.89059 8.89573 5.66671 8.35523 5.66671 7.79165C5.66671 7.22806 5.89059 6.68756 6.28911 6.28904C6.68762 5.89053 7.22812 5.66665 7.79171 5.66665C8.35529 5.66665 8.89579 5.89053 9.29431 6.28904C9.69282 6.68756 9.91671 7.22806 9.91671 7.79165C9.91671 8.35523 9.69282 8.89573 9.29431 9.29425C8.89579 9.69276 8.35529 9.91665 7.79171 9.91665ZM30.3309 16.405L17.5809 3.65498C17.0709 3.14498 16.3625 2.83331 15.5834 2.83331H5.66671C4.09421 2.83331 2.83337 4.09415 2.83337 5.66665V15.5833C2.83337 16.3625 3.14504 17.0708 3.66921 17.5808L16.405 30.3308C16.9292 30.8408 17.6375 31.1666 18.4167 31.1666C19.1959 31.1666 19.9042 30.8408 20.4142 30.3308L30.3309 20.4141C30.855 19.9041 31.1667 19.1958 31.1667 18.4166C31.1667 17.6233 30.8409 16.915 30.3309 16.405Z" fill="#09693A" fill-opacity="0.5"/>
</svg>
