<svg width="34" height="28" viewBox="0 0 34 28" fill="none" xmlns="http://www.w3.org/2000/svg">
<g clip-path="url(#clip0_224_63)">
<path d="M11.0498 19.25C10.9229 19.25 10.7959 19.2691 10.6748 19.3096C9.98628 19.5398 9.26218 19.6875 8.49984 19.6875C7.7375 19.6875 7.0134 19.5398 6.32437 19.3096C6.20325 19.2691 6.07681 19.25 5.94984 19.25C2.6529 19.25 -0.0176896 22.0106 -0.000158318 25.4089C0.00727918 26.845 1.15425 28 2.54984 28H14.4498C15.8454 28 16.9924 26.845 16.9998 25.4089C17.0174 22.0106 14.3468 19.25 11.0498 19.25ZM8.49984 17.5C11.3165 17.5 13.5998 15.1495 13.5998 12.25C13.5998 9.35047 11.3165 7 8.49984 7C5.68315 7 3.39984 9.35047 3.39984 12.25C3.39984 15.1495 5.68315 17.5 8.49984 17.5ZM31.4498 0H11.0498C9.64362 0 8.49984 1.2168 8.49984 2.71195V5.25C9.74403 5.25 10.8958 5.62078 11.8998 6.22344V3.5H30.5998V19.25H27.1998V15.75H20.3998V19.25H16.3496C17.3643 20.1627 18.1091 21.368 18.4581 22.75H31.4498C32.8561 22.75 33.9998 21.5332 33.9998 20.038V2.71195C33.9998 1.2168 32.8561 0 31.4498 0Z" fill="#09693A" fill-opacity="0.5"/>
</g>
<defs>
<clipPath id="clip0_224_63">
<rect width="34" height="28" fill="white"/>
</clipPath>
</defs>
</svg>
