<svg width="43" height="44" viewBox="0 0 43 44" fill="none" xmlns="http://www.w3.org/2000/svg">
<path d="M21.7586 23.5839C19.577 23.5791 17.4864 22.6911 15.9454 21.1146C14.4045 19.5382 13.5391 17.4021 13.5391 15.1751C13.5391 12.9481 14.4045 10.812 15.9454 9.23553C17.4864 7.65908 19.577 6.77103 21.7586 6.76624C23.9418 6.77102 26.0342 7.65849 27.578 9.23442C29.1218 10.8103 29.9911 12.9464 29.9958 15.1751C29.9911 17.4038 29.1218 19.5398 27.578 21.1158C26.0342 22.6917 23.9418 23.5792 21.7586 23.5839Z" fill="white"/>
<path d="M32.0555 39.1512C28.9578 40.2773 25.7033 40.8891 22.4158 40.9635C18.7884 41.0055 15.1822 40.392 11.7642 39.1512C11.6831 39.1754 11.5968 39.1754 11.5157 39.1512C11.4698 39.111 11.4333 39.0608 11.4087 39.0044C11.3842 38.948 11.3722 38.8867 11.3737 38.825V33.4245C11.3737 30.5406 12.4959 27.7749 14.4934 25.7357C16.491 23.6966 19.2003 22.551 22.0253 22.551C24.8502 22.551 27.5595 23.6966 29.5571 25.7357C31.5547 27.7749 32.6769 30.5406 32.6769 33.4245V38.7525L32.0555 39.1512Z" fill="white"/>
<path d="M21.528 41.8696C32.3129 41.8696 41.0559 32.9445 41.0559 21.9348C41.0559 10.9251 32.3129 2 21.528 2C10.743 2 2 10.9251 2 21.9348C2 32.9445 10.743 41.8696 21.528 41.8696Z" stroke="white" stroke-width="3" stroke-miterlimit="10"/>
</svg>
