<svg width="186" height="149" viewBox="0 0 186 149" fill="none" xmlns="http://www.w3.org/2000/svg">
<g clip-path="url(#clip0_808_421)">
<path d="M0.860242 129.995H0V137.603H0.860242V129.995Z" fill="white"/>
<path fill-rule="evenodd" clip-rule="evenodd" d="M8.2427 129.995H9.07167V137.603H8.38347L3.48791 131.373V137.603H2.64331V129.995H3.45663L8.2427 136.085V129.995Z" fill="white"/>
<path fill-rule="evenodd" clip-rule="evenodd" d="M13.5762 133.392C15.2654 133.768 16.0475 134.379 16.0475 135.553C16.0475 136.727 14.9682 137.713 13.451 137.713C12.2886 137.733 11.1649 137.294 10.3229 136.492L10.8547 135.866C11.1934 136.21 11.5977 136.484 12.0436 136.669C12.4896 136.855 12.9681 136.949 13.451 136.946C14.4833 136.946 15.1559 136.414 15.1559 135.647C15.1559 134.88 14.7649 134.52 13.1695 134.191C11.5741 133.862 10.6201 133.236 10.6201 131.983C10.6391 131.679 10.7201 131.382 10.8581 131.11C10.9961 130.838 11.1883 130.597 11.4226 130.402C11.657 130.207 11.9286 130.062 12.221 129.976C12.5133 129.89 12.8201 129.865 13.1226 129.901C14.0965 129.875 15.0469 130.203 15.7971 130.825L15.2966 131.498C14.6903 130.967 13.9129 130.672 13.107 130.668C12.106 130.668 11.5429 131.216 11.5429 131.905C11.5429 132.594 11.8401 133.032 13.5762 133.392Z" fill="white"/>
<path fill-rule="evenodd" clip-rule="evenodd" d="M20.0202 137.603H19.1443V130.794H16.5948V129.995H22.5696V130.794H20.0202V137.603Z" fill="white"/>
<path d="M24.6655 129.995H23.8053V137.603H24.6655V129.995Z" fill="white"/>
<path fill-rule="evenodd" clip-rule="evenodd" d="M29.3421 137.603H28.4662V130.794H25.9167V129.995H31.8915V130.794H29.3421V137.603Z" fill="white"/>
<path fill-rule="evenodd" clip-rule="evenodd" d="M39.2739 134.363C39.3268 134.798 39.2842 135.238 39.1491 135.655C39.014 136.071 38.7897 136.453 38.4918 136.774C38.1938 137.094 37.8294 137.346 37.4242 137.511C37.019 137.676 36.5827 137.75 36.1458 137.729C35.714 137.752 35.2825 137.68 34.881 137.52C34.4794 137.36 34.1174 137.114 33.82 136.8C33.5225 136.486 33.2967 136.111 33.1582 135.701C33.0197 135.291 32.9717 134.856 33.0176 134.426V130.011H33.8778V134.363C33.8778 135.928 34.7381 136.93 36.1927 136.93C36.5176 136.95 36.8428 136.897 37.1447 136.775C37.4465 136.653 37.7175 136.465 37.9377 136.225C38.1579 135.986 38.3219 135.699 38.4178 135.388C38.5137 135.077 38.539 134.748 38.4919 134.426V130.011H39.3521L39.2739 134.363Z" fill="white"/>
<path fill-rule="evenodd" clip-rule="evenodd" d="M43.7316 137.603H42.8713V130.794H40.3219V129.995H46.281V130.794H43.7316V137.603Z" fill="white"/>
<path fill-rule="evenodd" clip-rule="evenodd" d="M50.4728 130.669C50.0697 130.67 49.671 130.754 49.3009 130.913C48.9308 131.073 48.5969 131.307 48.3192 131.599C48.0416 131.892 47.826 132.237 47.6854 132.616C47.5447 132.994 47.482 133.396 47.501 133.799C47.4864 134.203 47.5526 134.605 47.6958 134.982C47.8389 135.359 48.0562 135.704 48.3346 135.996C48.6131 136.288 48.9471 136.521 49.317 136.681C49.6869 136.842 50.0852 136.926 50.4884 136.93C50.8915 136.929 51.2902 136.845 51.6603 136.685C52.0304 136.526 52.3643 136.292 52.6419 136C52.9196 135.707 53.1352 135.362 53.2758 134.983C53.4164 134.605 53.4792 134.203 53.4602 133.799C53.4748 133.396 53.4086 132.994 53.2654 132.617C53.1222 132.24 52.905 131.895 52.6266 131.603C52.3481 131.311 52.0141 131.078 51.6441 130.918C51.2742 130.757 50.876 130.672 50.4728 130.669ZM50.4728 137.744C49.9584 137.751 49.4478 137.653 48.972 137.457C48.4962 137.261 48.0649 136.971 47.7041 136.604C47.3432 136.237 47.0602 135.801 46.8721 135.322C46.684 134.842 46.5947 134.33 46.6095 133.815C46.5969 133.299 46.6882 132.785 46.8778 132.305C47.0675 131.825 47.3517 131.388 47.7136 131.02C48.0755 130.652 48.5077 130.36 48.9843 130.163C49.461 129.965 49.9725 129.866 50.4884 129.87C51.0028 129.864 51.5134 129.961 51.9892 130.157C52.4649 130.353 52.8962 130.643 53.2571 131.01C53.618 131.377 53.901 131.814 54.0891 132.293C54.2772 132.772 54.3665 133.285 54.3517 133.799C54.3643 134.316 54.273 134.829 54.0833 135.309C53.8937 135.79 53.6094 136.227 53.2476 136.595C52.8857 136.963 52.4535 137.254 51.9768 137.452C51.5002 137.649 50.9887 137.749 50.4728 137.744Z" fill="white"/>
<path fill-rule="evenodd" clip-rule="evenodd" d="M61.1867 130.809H59.4036V136.836H61.1867C61.5931 136.86 62.0001 136.8 62.382 136.659C62.764 136.518 63.1128 136.299 63.4064 136.017C63.7001 135.735 63.9324 135.395 64.0887 135.019C64.245 134.643 64.322 134.238 64.3149 133.831C64.3219 133.423 64.2449 133.018 64.0887 132.641C63.9326 132.264 63.7005 131.923 63.4071 131.639C63.1137 131.356 62.7652 131.136 62.3832 130.993C62.0012 130.85 61.5939 130.788 61.1867 130.809ZM61.1867 137.619H58.5591V130.027H61.1867C61.7049 129.99 62.2252 130.061 62.7147 130.235C63.2043 130.409 63.6525 130.683 64.0314 131.038C64.4104 131.394 64.7117 131.824 64.9166 132.302C65.1215 132.78 65.2255 133.295 65.2221 133.815C65.2209 134.334 65.1138 134.847 64.9073 135.322C64.7009 135.798 64.3994 136.226 64.0215 136.581C63.6436 136.936 63.1971 137.21 62.7097 137.386C62.2222 137.561 61.7039 137.636 61.1867 137.604V137.619Z" fill="white"/>
<path fill-rule="evenodd" clip-rule="evenodd" d="M72.1039 130.778H67.4586V133.377H71.6034V134.159H67.4586V136.821H72.1508V137.603H66.614V129.995H72.1039V130.778Z" fill="white"/>
<path fill-rule="evenodd" clip-rule="evenodd" d="M78.9859 133.392C80.6908 133.768 81.4572 134.379 81.4572 135.553C81.4572 136.727 80.378 137.713 78.8764 137.713C77.7149 137.728 76.593 137.29 75.7483 136.492L76.2801 135.866C76.6206 136.212 77.0274 136.487 77.4762 136.672C77.925 136.858 78.4065 136.951 78.8921 136.946C79.9088 136.946 80.5813 136.414 80.5813 135.647C80.5813 134.88 80.2059 134.52 78.6106 134.191C77.0152 133.862 76.0611 133.236 76.0611 131.983C76.0781 131.68 76.1573 131.383 76.2936 131.111C76.4299 130.839 76.6205 130.598 76.8536 130.403C77.0867 130.208 77.3574 130.063 77.6489 129.976C77.9403 129.89 78.2463 129.865 78.548 129.901C79.5221 129.873 80.473 130.202 81.2226 130.825L80.722 131.498C80.1172 130.964 79.3388 130.669 78.5324 130.669C77.547 130.669 76.9683 131.216 76.9683 131.905C76.9683 132.594 77.3124 133.032 78.9859 133.392Z" fill="white"/>
<path fill-rule="evenodd" clip-rule="evenodd" d="M85.8209 130.95L84.0848 134.833H87.5414L85.8209 130.95ZM89.6842 137.604H88.7771L87.8855 135.6H83.7407L82.8491 137.604H81.9733L85.4299 129.948H86.2276L89.6842 137.604Z" fill="white"/>
<path fill-rule="evenodd" clip-rule="evenodd" d="M96.3471 129.995H97.176V137.603H96.5035L91.5923 131.373V137.603H90.7477V129.995H91.561L96.3471 136.085V129.995Z" fill="white"/>
<path d="M99.835 129.995H98.9747V137.603H99.835V129.995Z" fill="white"/>
<path fill-rule="evenodd" clip-rule="evenodd" d="M104.293 130.809H102.51V136.836H104.293C104.7 136.863 105.108 136.804 105.491 136.664C105.874 136.523 106.223 136.305 106.517 136.022C106.812 135.74 107.044 135.399 107.199 135.022C107.355 134.644 107.43 134.239 107.421 133.831C107.43 133.422 107.355 133.016 107.199 132.638C107.044 132.26 106.812 131.918 106.518 131.634C106.224 131.35 105.875 131.13 105.492 130.988C105.109 130.846 104.7 130.785 104.293 130.809ZM104.293 137.619H101.649V130.027H104.293C104.81 129.992 105.329 130.065 105.818 130.24C106.307 130.415 106.754 130.688 107.132 131.044C107.511 131.399 107.812 131.828 108.018 132.305C108.224 132.782 108.329 133.296 108.328 133.815C108.327 134.334 108.22 134.847 108.013 135.322C107.807 135.798 107.505 136.226 107.127 136.581C106.749 136.936 106.303 137.21 105.816 137.385C105.328 137.561 104.81 137.635 104.293 137.603V137.619Z" fill="white"/>
<path fill-rule="evenodd" clip-rule="evenodd" d="M112.379 130.95L110.643 134.833H114.099L112.379 130.95ZM116.258 137.604H115.335L114.444 135.6H110.299L109.407 137.604H108.531L111.988 129.948H112.786L116.258 137.604Z" fill="white"/>
<path fill-rule="evenodd" clip-rule="evenodd" d="M119.933 130.809H118.15V136.836H119.933C120.34 136.863 120.748 136.804 121.131 136.664C121.514 136.524 121.864 136.305 122.158 136.023C122.452 135.74 122.685 135.399 122.84 135.022C122.996 134.644 123.071 134.239 123.062 133.831C123.071 133.422 122.996 133.016 122.84 132.638C122.685 132.26 122.453 131.918 122.159 131.634C121.865 131.35 121.516 131.13 121.133 130.988C120.749 130.847 120.341 130.786 119.933 130.809ZM119.933 137.619H117.306V130.027H119.933C120.452 129.99 120.972 130.061 121.461 130.235C121.951 130.409 122.399 130.683 122.778 131.038C123.157 131.394 123.458 131.824 123.663 132.302C123.868 132.78 123.972 133.295 123.969 133.815C123.968 134.334 123.86 134.847 123.654 135.322C123.448 135.798 123.146 136.226 122.768 136.581C122.39 136.936 121.944 137.21 121.456 137.386C120.969 137.561 120.451 137.636 119.933 137.604V137.619Z" fill="white"/>
<path fill-rule="evenodd" clip-rule="evenodd" d="M131.429 137.603H130.569V134.598L127.41 129.995H128.442L131.007 133.799L133.588 129.995H134.589L131.429 134.582V137.603Z" fill="white"/>
<path fill-rule="evenodd" clip-rule="evenodd" d="M141.83 137.744C141.321 137.745 140.816 137.642 140.346 137.443C139.877 137.244 139.452 136.953 139.098 136.586C138.743 136.22 138.466 135.785 138.282 135.309C138.099 134.833 138.013 134.325 138.03 133.815C138.013 133.304 138.099 132.796 138.282 132.319C138.465 131.842 138.742 131.406 139.097 131.039C139.451 130.671 139.876 130.378 140.345 130.177C140.815 129.976 141.32 129.872 141.83 129.87C142.382 129.852 142.932 129.951 143.444 130.158C143.956 130.366 144.418 130.678 144.802 131.076L144.208 131.702C143.901 131.379 143.533 131.121 143.124 130.943C142.716 130.766 142.276 130.672 141.83 130.669C141.429 130.672 141.033 130.757 140.666 130.918C140.298 131.079 139.967 131.313 139.692 131.606C139.418 131.898 139.205 132.243 139.067 132.62C138.929 132.997 138.869 133.399 138.89 133.8C138.873 134.199 138.936 134.599 139.076 134.974C139.215 135.349 139.428 135.692 139.702 135.984C139.976 136.276 140.306 136.51 140.671 136.672C141.036 136.835 141.431 136.922 141.83 136.93C142.293 136.927 142.75 136.827 143.172 136.639C143.595 136.45 143.974 136.176 144.286 135.835L144.849 136.383C144.474 136.814 144.01 137.16 143.489 137.395C142.968 137.63 142.402 137.749 141.83 137.744Z" fill="white"/>
<path fill-rule="evenodd" clip-rule="evenodd" d="M149.119 130.95L147.383 134.833H150.855L149.119 130.95ZM152.998 137.604H152.075L151.184 135.6H147.055L146.147 137.604H145.271L148.728 129.948H149.541L152.998 137.604Z" fill="white"/>
<path fill-rule="evenodd" clip-rule="evenodd" d="M154.062 129.995H154.922V136.805H159.192V137.603H154.062V129.995Z" fill="white"/>
<path d="M161.288 129.995H160.427V137.603H161.288V129.995Z" fill="white"/>
<path fill-rule="evenodd" clip-rule="evenodd" d="M165.714 130.809H163.931V136.836H165.714C166.12 136.86 166.527 136.8 166.909 136.659C167.291 136.518 167.64 136.299 167.934 136.017C168.227 135.735 168.46 135.395 168.616 135.019C168.772 134.643 168.849 134.238 168.842 133.831C168.849 133.423 168.772 133.017 168.616 132.64C168.46 132.263 168.228 131.923 167.934 131.639C167.641 131.356 167.292 131.136 166.91 130.993C166.528 130.85 166.121 130.788 165.714 130.809ZM165.714 137.619H163.071V130.027H165.714C166.232 129.992 166.751 130.065 167.239 130.24C167.728 130.415 168.175 130.688 168.554 131.044C168.932 131.399 169.233 131.828 169.439 132.305C169.645 132.782 169.75 133.296 169.749 133.815C169.748 134.334 169.641 134.847 169.435 135.322C169.228 135.798 168.927 136.226 168.549 136.581C168.171 136.936 167.724 137.21 167.237 137.385C166.749 137.561 166.231 137.635 165.714 137.603V137.619Z" fill="white"/>
<path fill-rule="evenodd" clip-rule="evenodd" d="M173.832 130.95L172.095 134.833H175.552L173.832 130.95ZM177.695 137.604H176.772L175.896 135.6H171.751L170.86 137.604H169.984L173.456 129.948H174.254L177.695 137.604Z" fill="white"/>
<path fill-rule="evenodd" clip-rule="evenodd" d="M181.402 130.809H179.619V136.836H181.402C181.809 136.863 182.217 136.804 182.6 136.664C182.983 136.524 183.332 136.305 183.626 136.023C183.921 135.74 184.153 135.399 184.308 135.022C184.464 134.644 184.539 134.239 184.53 133.831C184.539 133.422 184.464 133.016 184.308 132.638C184.153 132.26 183.921 131.918 183.627 131.634C183.333 131.35 182.984 131.13 182.601 130.988C182.218 130.847 181.809 130.786 181.402 130.809ZM181.402 137.619H178.758V130.027H181.402C181.92 129.99 182.44 130.061 182.93 130.235C183.419 130.409 183.867 130.683 184.246 131.038C184.625 131.394 184.927 131.824 185.132 132.302C185.336 132.78 185.44 133.295 185.437 133.815C185.436 134.334 185.329 134.847 185.122 135.322C184.916 135.798 184.614 136.226 184.236 136.581C183.858 136.936 183.412 137.21 182.925 137.386C182.437 137.561 181.919 137.636 181.402 137.604V137.619Z" fill="white"/>
<path fill-rule="evenodd" clip-rule="evenodd" d="M23.7741 142.222L22.0379 146.104H25.5102L23.7741 142.222ZM27.6529 148.875H26.7301L25.8386 146.871H21.7095L20.8023 148.875H19.9264L23.3987 141.22H24.1963L27.6529 148.875Z" fill="white"/>
<path fill-rule="evenodd" clip-rule="evenodd" d="M31.7977 149.016C31.2802 149.034 30.7645 148.944 30.2835 148.752C29.8024 148.56 29.3665 148.27 29.0033 147.901C28.6401 147.531 28.3575 147.09 28.1735 146.606C27.9895 146.121 27.9081 145.604 27.9344 145.086C27.9176 144.574 28.004 144.064 28.1882 143.586C28.3725 143.108 28.6509 142.672 29.0069 142.304C29.363 141.936 29.7895 141.643 30.2608 141.444C30.7322 141.244 31.2389 141.141 31.7507 141.141C32.7907 141.099 33.8061 141.464 34.5817 142.159L34.0187 142.816C33.7145 142.522 33.354 142.293 32.9588 142.142C32.5637 141.992 32.142 141.923 31.7194 141.94C31.3223 141.95 30.9312 142.039 30.5692 142.203C30.2072 142.367 29.8817 142.602 29.612 142.894C29.3422 143.185 29.1336 143.529 28.9986 143.902C28.8636 144.276 28.8049 144.674 28.8259 145.071C28.7974 145.479 28.8544 145.888 28.9936 146.272C29.1327 146.657 29.3507 147.008 29.6336 147.303C29.9166 147.598 30.2581 147.83 30.6362 147.985C31.0143 148.14 31.4206 148.214 31.8289 148.202C32.6222 148.203 33.3931 147.938 34.0187 147.45V145.556H31.7194V144.899H34.8476V147.92C33.9997 148.647 32.9143 149.037 31.7977 149.016Z" fill="white"/>
<path fill-rule="evenodd" clip-rule="evenodd" d="M39.5555 142.065H37.2093V145.196H39.5398C40.6816 145.196 41.4949 144.617 41.4949 143.63C41.4949 142.644 40.7754 142.065 39.5555 142.065ZM41.5732 148.875L39.3834 145.932H37.2093V148.875H36.3491V141.282H39.6181C41.2916 141.282 42.3552 142.175 42.3552 143.552C42.3566 144.116 42.1441 144.658 41.7609 145.071C41.3776 145.484 40.8521 145.735 40.2906 145.775L42.6367 148.906L41.5732 148.875Z" fill="white"/>
<path fill-rule="evenodd" clip-rule="evenodd" d="M47.282 141.94C46.8789 141.941 46.4803 142.025 46.1102 142.185C45.7401 142.345 45.4062 142.578 45.1285 142.87C44.8509 143.163 44.6352 143.509 44.4945 143.887C44.3539 144.265 44.2913 144.668 44.3103 145.071C44.2978 145.475 44.3659 145.877 44.5109 146.255C44.6558 146.632 44.8745 146.976 45.1542 147.268C45.4339 147.56 45.7689 147.792 46.1397 147.953C46.5104 148.113 46.9094 148.198 47.3133 148.202C47.7164 148.2 48.115 148.117 48.4851 147.957C48.8552 147.797 49.1892 147.564 49.4669 147.271C49.7445 146.978 49.9601 146.633 50.1007 146.255C50.2414 145.876 50.304 145.474 50.285 145.071C50.2975 144.667 50.2293 144.264 50.0844 143.887C49.9395 143.51 49.7208 143.165 49.4411 142.873C49.1614 142.582 48.8264 142.349 48.4556 142.189C48.0849 142.028 47.6858 141.944 47.282 141.94ZM47.282 149.016C46.7681 149.02 46.2587 148.921 45.7839 148.724C45.3091 148.527 44.8787 148.237 44.5183 147.871C44.1579 147.504 43.8748 147.069 43.6859 146.59C43.497 146.112 43.4062 145.601 43.4188 145.086C43.4083 144.569 43.5015 144.056 43.6929 143.575C43.8843 143.095 44.1701 142.658 44.5332 142.29C44.8963 141.922 45.3294 141.631 45.807 141.434C46.2845 141.237 46.7967 141.137 47.3133 141.141C47.8277 141.135 48.3382 141.232 48.814 141.428C49.2898 141.624 49.7211 141.915 50.0819 142.282C50.4428 142.649 50.7258 143.085 50.9139 143.564C51.102 144.044 51.1913 144.556 51.1765 145.071C51.187 145.588 51.0938 146.101 50.9023 146.582C50.7109 147.062 50.4253 147.499 50.0622 147.867C49.6991 148.235 49.2659 148.526 48.7884 148.723C48.3109 148.92 47.7986 149.02 47.282 149.016Z" fill="white"/>
<path fill-rule="evenodd" clip-rule="evenodd" d="M55.3371 142.065H53.4132V145.415H55.2901C56.5414 145.415 57.3704 144.742 57.3704 143.724C57.3704 142.707 56.5571 142.065 55.3371 142.065ZM55.2589 146.198H53.4132V148.875H52.553V141.282H55.3996C57.1045 141.282 58.2462 142.19 58.2462 143.693C58.2462 145.196 56.8699 146.198 55.2589 146.198Z" fill="white"/>
<path fill-rule="evenodd" clip-rule="evenodd" d="M64.8622 142.049H60.2326V144.648H64.3774V145.431H60.2326V148.092H64.9091V148.875H59.3723V141.267H64.8622V142.049Z" fill="white"/>
<path fill-rule="evenodd" clip-rule="evenodd" d="M69.6796 149.016C69.1685 149.018 68.6622 148.917 68.1909 148.719C67.7196 148.521 67.2929 148.23 66.9367 147.863C66.5804 147.496 66.3017 147.061 66.1173 146.584C65.9329 146.107 65.8464 145.598 65.8633 145.086C65.8486 144.572 65.9374 144.061 66.1244 143.581C66.3113 143.102 66.5927 142.666 66.9516 142.298C67.3106 141.93 67.7398 141.638 68.2139 141.439C68.6879 141.24 69.197 141.139 69.7109 141.142C70.2602 141.127 70.8064 141.227 71.3152 141.434C71.824 141.641 72.2844 141.952 72.6671 142.347L72.0883 142.989C71.7811 142.661 71.4107 142.399 70.9993 142.219C70.588 142.038 70.1443 141.943 69.6953 141.94C69.2948 141.946 68.8995 142.032 68.5331 142.194C68.1667 142.356 67.8365 142.59 67.5621 142.882C67.2878 143.174 67.075 143.518 66.9363 143.894C66.7976 144.27 66.7359 144.67 66.7548 145.071C66.7381 145.471 66.8013 145.87 66.9408 146.245C67.0803 146.62 67.2932 146.964 67.5671 147.255C67.841 147.547 68.1703 147.781 68.5358 147.943C68.9012 148.106 69.2955 148.194 69.6953 148.202C70.1585 148.202 70.6165 148.104 71.0396 147.915C71.4627 147.727 71.8413 147.451 72.1509 147.106L72.7139 147.654C72.3393 148.09 71.8731 148.438 71.3486 148.674C70.8241 148.909 70.2543 149.026 69.6796 149.016Z" fill="white"/>
<path fill-rule="evenodd" clip-rule="evenodd" d="M79.9869 145.634C80.0398 146.069 79.9972 146.51 79.8621 146.926C79.727 147.343 79.5026 147.724 79.2047 148.045C78.9067 148.366 78.5424 148.617 78.1372 148.782C77.732 148.947 77.2957 149.021 76.8587 149C76.4263 149.025 75.9935 148.956 75.5907 148.797C75.1879 148.637 74.8247 148.392 74.5267 148.077C74.2287 147.762 74.003 147.386 73.8655 146.975C73.728 146.564 73.682 146.128 73.7306 145.697V141.282H74.5752V145.65C74.5285 145.977 74.5549 146.311 74.6523 146.626C74.7497 146.942 74.9157 147.232 75.1385 147.476C75.3613 147.72 75.6353 147.912 75.9409 148.037C76.2464 148.163 76.5758 148.219 76.9056 148.202C78.2976 148.202 79.1892 147.356 79.1892 145.697V141.282H80.0494L79.9869 145.634Z" fill="white"/>
<path fill-rule="evenodd" clip-rule="evenodd" d="M84.5227 142.222L82.7866 146.104H86.2433L84.5227 142.222ZM88.3861 148.875H87.4632L86.5717 146.871H82.3956L81.4884 148.875H80.6125L84.0848 141.22H84.8825L88.3861 148.875Z" fill="white"/>
<path fill-rule="evenodd" clip-rule="evenodd" d="M92.6559 142.065H90.3098V145.196H92.6403C93.782 145.196 94.5954 144.617 94.5954 143.63C94.5954 142.644 93.8759 142.065 92.6559 142.065ZM94.6892 148.875L92.4839 145.932H90.3098V148.875H89.4496V141.282H92.7185C94.392 141.282 95.4712 142.175 95.4712 143.552C95.469 144.114 95.2553 144.655 94.8728 145.067C94.4902 145.479 93.9668 145.732 93.4066 145.775L95.7372 148.906L94.6892 148.875Z" fill="white"/>
<path d="M97.8018 141.267H96.9415V148.875H97.8018V141.267Z" fill="white"/>
<path fill-rule="evenodd" clip-rule="evenodd" d="M102.729 142.222L100.992 146.104H104.449L102.729 142.222ZM106.607 148.875H105.685L104.793 146.871H100.664L99.7567 148.875H98.8809L102.338 141.22H103.135L106.607 148.875Z" fill="white"/>
<path fill-rule="evenodd" clip-rule="evenodd" d="M114.193 146.793H114.146L111.394 142.722V148.875H110.549V141.267H111.425L114.178 145.415L116.962 141.267H117.822V148.875H116.962V142.722L114.193 146.793Z" fill="white"/>
<path fill-rule="evenodd" clip-rule="evenodd" d="M125.032 142.049H120.387V144.648H124.547V145.431H120.387V148.092H125.079V148.875H119.542V141.267H125.032V142.049Z" fill="white"/>
<path fill-rule="evenodd" clip-rule="evenodd" d="M131.961 141.267H132.806V148.875H132.118L127.206 142.644V148.875H126.377V141.267H127.175L131.961 147.372V141.267Z" fill="white"/>
<path fill-rule="evenodd" clip-rule="evenodd" d="M137.138 142.065H135.355V148.029H137.138C137.545 148.056 137.953 147.997 138.336 147.857C138.719 147.717 139.069 147.498 139.363 147.216C139.657 146.933 139.89 146.592 140.045 146.215C140.201 145.837 140.276 145.432 140.266 145.024C140.276 144.615 140.2 144.209 140.045 143.831C139.89 143.453 139.658 143.111 139.364 142.827C139.07 142.543 138.72 142.323 138.337 142.181C137.954 142.039 137.546 141.979 137.138 142.002V142.065ZM137.138 148.875H134.495V141.282H137.138C137.657 141.246 138.177 141.317 138.666 141.491C139.156 141.665 139.604 141.938 139.983 142.294C140.362 142.65 140.663 143.08 140.868 143.558C141.073 144.036 141.177 144.551 141.174 145.071C141.175 145.591 141.069 146.105 140.864 146.583C140.658 147.06 140.357 147.491 139.979 147.847C139.601 148.204 139.153 148.479 138.665 148.656C138.176 148.832 137.657 148.907 137.138 148.875Z" fill="white"/>
<path fill-rule="evenodd" clip-rule="evenodd" d="M146.1 141.94C145.697 141.941 145.299 142.025 144.928 142.185C144.558 142.345 144.224 142.578 143.947 142.87C143.669 143.163 143.453 143.509 143.313 143.887C143.172 144.265 143.11 144.668 143.129 145.071C143.114 145.474 143.18 145.876 143.323 146.253C143.467 146.631 143.684 146.975 143.962 147.267C144.241 147.559 144.575 147.792 144.945 147.952C145.315 148.113 145.713 148.198 146.116 148.202C146.519 148.2 146.918 148.117 147.288 147.957C147.658 147.797 147.992 147.564 148.269 147.271C148.547 146.978 148.763 146.633 148.903 146.255C149.044 145.876 149.107 145.474 149.088 145.071C149.102 144.667 149.036 144.265 148.893 143.888C148.75 143.511 148.533 143.166 148.254 142.874C147.976 142.582 147.642 142.349 147.272 142.189C146.902 142.028 146.503 141.944 146.1 141.94ZM146.1 149.016C145.586 149.022 145.075 148.925 144.6 148.729C144.124 148.533 143.693 148.242 143.332 147.875C142.971 147.508 142.688 147.072 142.5 146.593C142.312 146.114 142.222 145.601 142.237 145.086C142.224 144.57 142.316 144.057 142.505 143.576C142.695 143.096 142.979 142.659 143.341 142.291C143.703 141.923 144.135 141.632 144.612 141.434C145.089 141.237 145.6 141.137 146.116 141.141C146.63 141.135 147.141 141.232 147.617 141.428C148.092 141.624 148.524 141.915 148.885 142.282C149.245 142.649 149.528 143.085 149.717 143.564C149.905 144.044 149.994 144.556 149.979 145.071C149.99 145.586 149.897 146.099 149.706 146.578C149.516 147.057 149.232 147.494 148.87 147.861C148.509 148.229 148.078 148.52 147.602 148.719C147.126 148.917 146.616 149.018 146.1 149.016Z" fill="white"/>
<path fill-rule="evenodd" clip-rule="evenodd" d="M150.746 142.049V141.267H156.674V141.846L151.747 148.108H156.674V148.875H150.589V148.296L155.501 142.049H150.746Z" fill="white"/>
<path fill-rule="evenodd" clip-rule="evenodd" d="M161.225 142.222L159.489 146.104H162.946L161.225 142.222ZM165.104 148.875H164.181L163.29 146.871H159.145L158.253 148.875H157.377L160.834 141.22H161.632L165.104 148.875Z" fill="white"/>
<path fill-rule="evenodd" clip-rule="evenodd" d="M94.3764 73.5137C94.3764 73.5137 70.3835 54.7282 90.2473 7.92114C90.2473 7.92114 67.7715 37.5239 84.163 70.3985L94.3764 73.5137Z" fill="white"/>
<path fill-rule="evenodd" clip-rule="evenodd" d="M87.385 59.3464C87.385 59.3464 105.872 53.0846 113.63 48.9518C126.033 42.3925 128.661 35.9272 127.848 33.125C119.527 34.6905 108.281 30.6046 96.9571 40.3731C90.0439 46.3374 87.0721 57.8279 87.0721 57.8279C87.0721 57.8279 89.0898 48.3412 116.79 38.4162C90.5288 49.7814 87.385 59.3464 87.385 59.3464Z" fill="white"/>
<path fill-rule="evenodd" clip-rule="evenodd" d="M86.118 22.887C91.3077 22.7518 96.4867 22.3442 101.634 21.666C109.219 20.2257 111.659 17.2514 111.691 15.639C106.998 15.138 101.79 11.1305 94.2356 14.4336C89.5434 16.4687 86.1962 22.0417 86.1962 22.0417C86.1962 22.0417 88.7926 17.3453 104.965 16.6252C89.3244 18.3472 86.118 22.887 86.118 22.887Z" fill="white"/>
<path fill-rule="evenodd" clip-rule="evenodd" d="M37.2876 16.3904C45.6867 19.036 57.7457 16.0303 68.3189 27.3486C74.4188 33.9235 76.3113 45.1791 76.499 46.3845C76.2957 45.2887 73.887 35.6611 48.0641 23.0592C73.8713 37.7901 76.0141 48.0126 76.0141 48.0126C76.0141 48.0126 57.6832 39.4026 50.1443 34.2835C38.1009 26.1588 36.1301 19.1925 37.2876 16.3904Z" fill="white"/>
<path fill-rule="evenodd" clip-rule="evenodd" d="M97.6297 0C90.508 0.00660138 83.5285 1.99539 77.4712 5.74409C71.4139 9.4928 66.5176 14.8537 63.3295 21.2276C65.092 22.3296 66.733 23.6152 68.2251 25.0629C70.7948 19.4165 74.9337 14.6296 80.1477 11.2736C85.3617 7.91755 91.4306 6.13425 97.6297 6.13658C106.193 6.13658 114.406 9.54026 120.462 15.5993C126.519 21.6583 129.924 29.8767 129.928 38.4476C129.928 47.0211 126.525 55.2435 120.468 61.306C114.411 67.3684 106.196 70.7742 97.6297 70.7742C90.1905 70.7761 82.9785 68.2089 77.2112 63.5059C71.4438 58.803 67.4743 52.2524 65.9728 44.9599C63.8769 43.911 61.6091 42.7526 59.3724 41.5628C60.1543 51.1806 64.5237 60.1517 71.6121 66.6924C78.7005 73.233 87.9886 76.8641 97.6297 76.8638C107.809 76.8638 117.572 72.8164 124.77 65.612C131.968 58.4075 136.012 48.6362 136.012 38.4476C136.014 33.4006 135.023 28.4027 133.095 23.7391C131.168 19.0756 128.341 14.8377 124.777 11.2675C121.213 7.69732 116.981 4.86473 112.323 2.93144C107.665 0.998158 102.672 0.00205537 97.6297 0Z" fill="white"/>
<path d="M6.85062 91.5166H1.48584V122.09H6.85062V91.5166Z" fill="white"/>
<path fill-rule="evenodd" clip-rule="evenodd" d="M23.8521 104.353C30.3118 105.919 33.6589 108.236 33.6589 113.355C33.6589 119.116 29.17 122.528 22.7104 122.528C17.999 122.546 13.4517 120.798 9.96313 117.628L13.2008 113.793C15.7858 116.303 19.2339 117.726 22.8355 117.769C26.1513 117.769 28.2472 116.204 28.2472 113.871C28.2472 111.539 27.0272 110.474 21.3496 109.175C14.8586 107.609 11.1831 105.684 11.1831 100.001C11.1831 94.6788 15.5469 91.0939 21.6155 91.0939C25.6524 91.0137 29.5851 92.3795 32.7048 94.9449L29.8269 98.9994C27.4782 97.08 24.5675 95.9807 21.5373 95.8685C18.4092 95.8685 16.5635 97.434 16.5635 99.5317C16.6104 101.911 18.0025 102.96 23.8521 104.353Z" fill="white"/>
<path fill-rule="evenodd" clip-rule="evenodd" d="M50.8639 122.606C48.7991 122.63 46.7507 122.237 44.8412 121.451C42.9317 120.664 41.2002 119.5 39.7504 118.029C38.3005 116.557 37.162 114.808 36.403 112.886C35.6439 110.964 35.2798 108.908 35.3325 106.842C35.2814 104.751 35.6542 102.671 36.4283 100.728C37.2025 98.7852 38.3621 97.0194 39.837 95.5373C41.3119 94.0553 43.0716 92.8877 45.0098 92.1052C46.948 91.3227 49.0246 90.9413 51.1141 90.9843C53.3284 90.9023 55.5354 91.2847 57.5933 92.107C59.6512 92.9292 61.5145 94.1732 63.0637 95.7589L59.6227 99.7195C58.5174 98.5536 57.1922 97.6185 55.7237 96.9683C54.2553 96.318 52.6725 95.9655 51.0671 95.9311C45.2175 95.9311 40.9946 100.737 40.9946 106.764C40.9946 112.791 45.2175 117.722 51.0671 117.722C54.8209 117.722 57.214 116.157 59.8417 113.746L63.2827 117.237C61.7412 118.999 59.8267 120.395 57.6786 121.324C55.5304 122.253 53.2024 122.691 50.8639 122.606Z" fill="white"/>
<path fill-rule="evenodd" clip-rule="evenodd" d="M79.2674 97.7157L74.0434 109.942H84.554L79.2674 97.7157ZM95.2835 122.09H89.6216L86.4934 114.701H72.057L68.9289 122.09H63.439L76.8743 91.2974H81.8482L95.2835 122.09Z" fill="white"/>
<path fill-rule="evenodd" clip-rule="evenodd" d="M112.395 114.576H112.222L102.666 100.236V122.074H97.3794V91.5166H103.104L112.395 105.966L121.685 91.5166H127.394V122.074H122.029V100.158L112.395 114.576Z" fill="white"/>
<path fill-rule="evenodd" clip-rule="evenodd" d="M155.391 96.3069H138.108V104.259H153.42V109.065H138.108V117.284H155.61V122.074H132.743V91.5166H155.391V96.3069Z" fill="white"/>
<path fill-rule="evenodd" clip-rule="evenodd" d="M180.713 91.5166H186V122.074H181.511L164.666 100.33V122.074H159.379V91.5166H164.353L180.713 112.65V91.5166Z" fill="white"/>
</g>
<defs>
<clipPath id="clip0_808_421">
<rect width="186" height="149" fill="white"/>
</clipPath>
</defs>
</svg>
