<svg width="133" height="35" viewBox="0 0 133 35" fill="none" xmlns="http://www.w3.org/2000/svg">
<g id="Group 12">
<path id="Vector" fill-rule="evenodd" clip-rule="evenodd" d="M26.0305 33.1956C26.0305 33.1956 15.134 24.8617 24.1498 4.11928C24.1498 4.11928 13.95 17.2446 21.389 31.8185L26.0305 33.1956Z" fill="white"/>
<path id="Vector_2" fill-rule="evenodd" clip-rule="evenodd" d="M22.8563 26.9145C22.8563 26.9145 31.2382 24.1246 34.7639 22.3073C40.3955 19.4048 41.5742 16.5381 41.2232 15.2942C37.4409 16.0211 32.3174 14.1782 27.1992 18.509C24.056 21.1504 22.7148 26.2439 22.7148 26.2439C22.7148 26.2439 23.6264 22.036 36.215 17.6387C24.2812 22.6759 22.8563 26.9145 22.8563 26.9145Z" fill="white"/>
<path id="Vector_3" fill-rule="evenodd" clip-rule="evenodd" d="M22.2744 10.7587C24.6296 10.7003 26.9798 10.5192 29.3152 10.2161C32.7676 9.5762 33.8729 8.25549 33.8886 7.54394C31.7932 7.32382 29.3886 5.54751 25.9625 7.03204C23.867 7.92787 22.2954 10.4004 22.2954 10.4004C22.2954 10.4004 23.4741 8.35274 30.8397 8.00464C23.7308 8.74691 22.2744 10.7587 22.2744 10.7587Z" fill="white"/>
<path id="Vector_4" fill-rule="evenodd" clip-rule="evenodd" d="M0.130875 7.87666C3.94466 9.04893 9.42436 7.71799 14.2178 12.7551C16.9891 15.6679 17.8482 20.659 17.932 21.1914C17.843 20.705 16.7428 16.4409 5.02383 10.856C16.7428 17.3828 17.712 21.9132 17.712 21.9132C17.712 21.9132 9.39291 18.0995 5.97203 15.8317C0.481865 12.2074 -0.392996 9.1206 0.130875 7.87666Z" fill="white"/>
<path id="Vector_5" fill-rule="evenodd" clip-rule="evenodd" d="M27.503 0.617816C24.2727 0.617301 21.1058 1.49458 18.3564 3.1516C15.6069 4.80863 13.3831 7.18013 11.9336 10.0011C12.7332 10.4895 13.4777 11.0592 14.1548 11.7006C15.6034 8.59682 18.1373 6.09965 21.3013 4.65786C24.4652 3.21607 28.0516 2.9242 31.416 3.83473C34.7804 4.74526 37.7022 6.79847 39.6562 9.62536C41.6102 12.4523 42.4684 15.8675 42.0765 19.2572C41.6846 22.647 40.0683 25.789 37.518 28.1187C34.9678 30.4483 31.6509 31.8128 28.1634 31.9669C24.6759 32.121 21.2465 31.0546 18.4916 28.9594C15.7366 26.8641 13.8367 23.8775 13.1333 20.5361C12.1798 20.0703 11.153 19.5533 10.1367 19.026C10.4156 22.3223 11.671 25.4679 13.7495 28.0785C15.8281 30.689 18.6398 32.6514 21.8411 33.7259C25.0424 34.8004 28.4946 34.9405 31.7761 34.129C35.0575 33.3176 38.0261 31.5897 40.3189 29.1566C42.6118 26.7234 44.1298 23.6904 44.6874 20.428C45.245 17.1656 44.818 13.8151 43.4587 10.7859C42.0993 7.75677 39.8665 5.18009 37.033 3.37072C34.1995 1.56135 30.8879 0.597655 27.503 0.597351V0.617816Z" fill="white"/>
<path id="Vector_6" d="M51.6801 10.8713H49.2441V24.4215H51.6801V10.8713Z" fill="white"/>
<path id="Vector_7" fill-rule="evenodd" clip-rule="evenodd" d="M59.396 16.5586C62.3244 17.2548 63.8489 18.2837 63.8489 20.5463C63.8489 23.1059 61.811 24.6109 58.8983 24.6109C56.7687 24.6147 54.7141 23.8426 53.1357 22.4455L54.6026 20.7409C55.7778 21.8542 57.3454 22.4845 58.9821 22.5018C60.4857 22.5018 61.4339 21.8261 61.4339 20.7767C61.4339 19.7273 60.8786 19.2717 58.2906 18.6881C55.3412 17.992 53.6753 17.1524 53.6753 14.6236C53.6753 12.2637 55.6556 10.6768 58.3902 10.6768C60.2211 10.6401 62.005 11.2448 63.4193 12.3815L62.1097 14.1782C61.0457 13.3241 59.7243 12.8349 58.3483 12.7858C56.9233 12.7858 56.0904 13.5025 56.0904 14.4086C56.1061 15.4733 56.74 15.9392 59.396 16.5586Z" fill="white"/>
<path id="Vector_8" fill-rule="evenodd" clip-rule="evenodd" d="M71.6593 24.6518C70.7175 24.6455 69.7862 24.4579 68.9186 24.0998C68.0509 23.7417 67.264 23.2201 66.6026 22.5648C65.9413 21.9096 65.4185 21.1335 65.0642 20.2808C64.7098 19.4281 64.5307 18.5155 64.5373 17.5952C64.5438 16.6749 64.7358 15.7649 65.1022 14.9171C65.4687 14.0692 66.0025 13.3003 66.6731 12.6541C67.3436 12.0078 68.1379 11.497 69.0105 11.1507C69.8831 10.8044 70.817 10.6294 71.7588 10.6358C72.7638 10.5998 73.7654 10.7687 74.6998 11.1318C75.6342 11.495 76.481 12.0443 77.1862 12.7449L75.6145 14.5058C75.1129 13.9891 74.5118 13.5743 73.8456 13.2852C73.1794 12.9962 72.4613 12.8387 71.7326 12.8217C69.0766 12.8217 67.154 14.9512 67.154 17.6234C67.154 20.2955 69.0766 22.4609 71.7326 22.4609C73.4352 22.4609 74.5249 21.7852 75.7141 20.6999L77.2857 22.2357C76.5904 23.0215 75.7247 23.6461 74.7515 24.064C73.7782 24.482 72.7219 24.6828 71.6593 24.6518Z" fill="white"/>
<path id="Vector_9" fill-rule="evenodd" clip-rule="evenodd" d="M84.5312 13.6203L82.1581 19.0363H86.9306L84.5312 13.6203ZM91.8078 24.4317H89.2356L87.8264 21.1607H81.2675L79.8374 24.4317H77.3438L83.4259 10.7741H85.6838L91.8078 24.4317Z" fill="white"/>
<path id="Vector_10" fill-rule="evenodd" clip-rule="evenodd" d="M99.5867 21.089H99.5081L95.1705 14.7413V24.4164H92.7764V10.8713H95.3695L99.5867 17.2753L103.809 10.8713H106.402V24.4164H103.966V14.7055L99.5867 21.089Z" fill="white"/>
<path id="Vector_11" fill-rule="evenodd" clip-rule="evenodd" d="M119.107 13.0009H111.265V16.5228H118.217V18.6523H111.265V22.292H119.207V24.4164H108.829V10.8713H119.107V13.0009Z" fill="white"/>
<path id="Vector_12" fill-rule="evenodd" clip-rule="evenodd" d="M130.605 10.8713H132.999V24.4164H130.962L123.318 14.7823V24.4164H120.919V10.8713H123.177L130.605 20.2392V10.8713Z" fill="white"/>
</g>
</svg>
