<svg width="107" height="28" viewBox="0 0 107 28" fill="none" xmlns="http://www.w3.org/2000/svg">
<path fill-rule="evenodd" clip-rule="evenodd" d="M20.9418 26.2257C20.9418 26.2257 12.1754 19.521 19.4288 2.83344C19.4288 2.83344 11.2229 13.3929 17.2076 25.1179L20.9418 26.2257Z" fill="white"/>
<path fill-rule="evenodd" clip-rule="evenodd" d="M18.3882 21.1725C18.3882 21.1725 25.1316 18.928 27.968 17.466C32.4988 15.1309 33.4471 12.8246 33.1647 11.8238C30.1217 12.4086 25.9998 10.926 21.8821 14.4102C19.3534 16.5352 18.2744 20.633 18.2744 20.633C18.2744 20.633 19.0078 17.2477 29.1355 13.71C19.5346 17.7625 18.3882 21.1725 18.3882 21.1725Z" fill="white"/>
<path fill-rule="evenodd" clip-rule="evenodd" d="M17.9199 8.17496C19.8147 8.12797 21.7055 7.98225 23.5844 7.73842C26.3618 7.22362 27.2511 6.1611 27.2637 5.58864C25.5779 5.41155 23.6434 3.98248 20.887 5.17681C19.2012 5.89752 17.9368 7.8867 17.9368 7.8867C17.9368 7.8867 18.8851 6.23933 24.8108 5.95928C19.0916 6.55644 17.9199 8.17496 17.9199 8.17496Z" fill="white"/>
<path fill-rule="evenodd" clip-rule="evenodd" d="M0.105291 5.85631C3.17353 6.79941 7.58203 5.72865 11.4384 9.78112C13.6679 12.1245 14.3591 16.1399 14.4266 16.5682C14.3549 16.1769 13.4699 12.7463 4.04174 8.2532C13.4699 13.5041 14.2496 17.1489 14.2496 17.1489C14.2496 17.1489 7.55674 14.0807 4.80459 12.2563C0.387668 9.34046 -0.316171 6.85707 0.105291 5.85631Z" fill="white"/>
<path fill-rule="evenodd" clip-rule="evenodd" d="M22.1267 0.0164644C19.5279 0.0160503 16.9801 0.721832 14.7681 2.05493C12.5561 3.38804 10.7671 5.29594 9.60089 7.56543C10.2442 7.95842 10.8432 8.41673 11.3879 8.93273C12.5533 6.43569 14.5919 4.42668 17.1373 3.26674C19.6827 2.1068 22.5681 1.87198 25.2748 2.60452C27.9815 3.33705 30.3321 4.98889 31.9041 7.26317C33.4762 9.53744 34.1666 12.285 33.8513 15.0121C33.536 17.7393 32.2356 20.2671 30.1839 22.1413C28.1323 24.0155 25.4638 25.1133 22.658 25.2373C19.8523 25.3612 17.0933 24.5033 14.8769 22.8177C12.6604 21.132 11.1319 18.7292 10.566 16.041C9.79898 15.6663 8.97291 15.2503 8.15527 14.8261C8.37961 17.4781 9.38959 20.0088 11.0618 22.109C12.734 24.2092 14.9961 25.788 17.5716 26.6524C20.1471 27.5169 22.9245 27.6296 25.5645 26.9767C28.2044 26.3239 30.5927 24.9338 32.4373 22.9763C34.282 21.0188 35.5032 18.5787 35.9518 15.954C36.4004 13.3294 36.0569 10.6339 34.9633 8.19686C33.8697 5.75986 32.0733 3.68688 29.7937 2.23122C27.5141 0.775551 24.8499 0.000244375 22.1267 0V0.0164644Z" fill="white"/>
<path d="M41.577 8.26556H39.6172V19.1669H41.577V8.26556Z" fill="white"/>
<path fill-rule="evenodd" clip-rule="evenodd" d="M47.7845 12.8411C50.1405 13.4012 51.367 14.2289 51.367 16.0493C51.367 18.1084 49.7275 19.3192 47.3841 19.3192C45.6708 19.3223 44.0178 18.7012 42.748 17.5772L43.9281 16.2058C44.8736 17.1015 46.1348 17.6085 47.4516 17.6225C48.6612 17.6225 49.424 17.0788 49.424 16.2346C49.424 15.3903 48.9773 15.0238 46.8952 14.5543C44.5224 13.9942 43.1822 13.3188 43.1822 11.2843C43.1822 9.38576 44.7753 8.10906 46.9753 8.10906C48.4483 8.07952 49.8835 8.56599 51.0213 9.48048L49.9677 10.926C49.1118 10.2388 48.0486 9.84531 46.9416 9.80582C45.7952 9.80582 45.1251 10.3824 45.1251 11.1113C45.1377 11.968 45.6477 12.3427 47.7845 12.8411Z" fill="white"/>
<path fill-rule="evenodd" clip-rule="evenodd" d="M57.6508 19.3522C56.8931 19.3471 56.1439 19.1961 55.4458 18.9081C54.7478 18.62 54.1147 18.2003 53.5827 17.6732C53.0506 17.146 52.63 16.5216 52.3449 15.8356C52.0598 15.1496 51.9158 14.4154 51.921 13.675C51.9263 12.9346 52.0807 12.2025 52.3756 11.5204C52.6704 10.8383 53.0998 10.2197 53.6393 9.6998C54.1788 9.1799 54.8178 8.7689 55.5198 8.49031C56.2219 8.21172 56.9732 8.07097 57.7309 8.07611C58.5394 8.04711 59.3452 8.18302 60.0969 8.47515C60.8487 8.76729 61.53 9.20925 62.0972 9.77288L60.8329 11.1896C60.4293 10.7738 59.9457 10.4401 59.4097 10.2076C58.8738 9.97506 58.2961 9.84833 57.7098 9.83466C55.573 9.83466 54.0262 11.5479 54.0262 13.6977C54.0262 15.8475 55.573 17.5895 57.7098 17.5895C59.0796 17.5895 59.9562 17.0459 60.9129 16.1728L62.1773 17.4083C61.618 18.0405 60.9215 18.543 60.1385 18.8793C59.3555 19.2155 58.5057 19.3771 57.6508 19.3522Z" fill="white"/>
<path fill-rule="evenodd" clip-rule="evenodd" d="M68.0071 10.4771L66.0978 14.8344H69.9374L68.0071 10.4771ZM73.8612 19.1751H71.7918L70.6581 16.5435H65.3814L64.2308 19.1751H62.2246L67.1178 8.18733H68.9343L73.8612 19.1751Z" fill="white"/>
<path fill-rule="evenodd" clip-rule="evenodd" d="M80.1187 16.4858H80.0554L76.5657 11.379V19.1628H74.6396V8.26556H76.7259L80.1187 13.4176L83.5156 8.26556H85.6019V19.1628H83.6421V11.3502L80.1187 16.4858Z" fill="white"/>
<path fill-rule="evenodd" clip-rule="evenodd" d="M95.8238 9.9788H89.5145V12.8122H95.1073V14.5255H89.5145V17.4536H95.9039V19.1628H87.5547V8.26556H95.8238V9.9788Z" fill="white"/>
<path fill-rule="evenodd" clip-rule="evenodd" d="M105.074 8.26556H107V19.1628H105.361L99.2116 11.412V19.1628H97.2812V8.26556H99.0979L105.074 15.8022V8.26556Z" fill="white"/>
</svg>
