<svg width="38" height="38" viewBox="0 0 38 38" fill="none" xmlns="http://www.w3.org/2000/svg">
<path fill-rule="evenodd" clip-rule="evenodd" d="M5.54163 19C5.54163 15.4306 6.95955 12.0075 9.48348 9.48354C12.0074 6.95961 15.4306 5.54169 19 5.54169C22.5693 5.54169 25.9925 6.95961 28.5164 9.48354C31.0404 12.0075 32.4583 15.4306 32.4583 19C32.4583 22.5694 31.0404 25.9926 28.5164 28.5165C25.9925 31.0404 22.5693 32.4584 19 32.4584C15.4306 32.4584 12.0074 31.0404 9.48348 28.5165C6.95955 25.9926 5.54163 22.5694 5.54163 19ZM20.1875 11.0834C20.1875 10.7684 20.0623 10.4664 19.8396 10.2437C19.617 10.021 19.3149 9.89585 19 9.89585C18.685 9.89585 18.383 10.021 18.1603 10.2437C17.9376 10.4664 17.8125 10.7684 17.8125 11.0834V19C17.8124 19.2014 17.8635 19.3994 17.961 19.5756C18.0585 19.7517 18.1991 19.9002 18.3698 20.007L23.1198 22.9758C23.3869 23.1429 23.7094 23.1971 24.0164 23.1264C24.1684 23.0914 24.3121 23.0268 24.4392 22.9363C24.5662 22.8458 24.6742 22.7312 24.757 22.5989C24.8397 22.4667 24.8956 22.3195 24.9215 22.1656C24.9473 22.0118 24.9426 21.8543 24.9076 21.7023C24.8726 21.5503 24.808 21.4066 24.7175 21.2796C24.627 21.1525 24.5124 21.0445 24.3801 20.9618L20.1875 18.3414V11.0834Z" fill="#09693A" fill-opacity="0.5"/>
</svg>
